# xmcd
# 
# Track frame offsets:
#     150
#     14930
#     31277
#     47017
#     64805
#     77577
#     94832
#     112955
#     132440
#     143485
#     165607
#     181102
#     197795
#     215295
# 
# Disc length: 3058
# 
# Revision: 17
# Processed by: cddbd v1.5.2PL0 Copyright (c) Steve Scherf et al.
# Submitted via: fre:ac v1.0.27
# 
DISCID=bd0bf00e
DTITLE=Toby Keith - Greatest Hits Volume One
DYEAR=1998
DGENRE=Country
TTITLE0=Getcha Some
TTITLE1=If A Man Answers
TTITLE2=Should've Been A Cowboy
TTITLE3=Dream Walkin'
TTITLE4=A Little Less Talk And A Lot More Action
TTITLE5=Does That Blue Moon Ever Shine On You
TTITLE6=Toby Keith with Sting - I'm So Happy I Can't Stop Crying
TTITLE7=We Were In Love
TTITLE8=You Ain't Much Fun
TTITLE9=Who's That Man
TTITLE10=Wish I Didn't Know Now
TTITLE11=Big Ol' Truck
TTITLE12=Me Too
TTITLE13=He Ain't Worth Missing
EXTD=YEAR: 1995
EXTT0=
EXTT1=
EXTT2=
EXTT3=
EXTT4=
EXTT5=
EXTT6=
EXTT7=
EXTT8=
EXTT9=
EXTT10=
EXTT11=
EXTT12=
EXTT13=
PLAYORDER=
